{
	"asset":{
		"generator":"Khronos glTF Blender I/O v4.2.69",
		"version":"2.0"
	},
	"scene":0,
	"scenes":[
		{
			"name":"Scene",
			"nodes":[
				0,
				1,
				2,
				3,
				4,
				5,
				6,
				7,
				8,
				9,
				10
			]
		}
	],
	"nodes":[
		{
			"mesh":0,
			"name":"cup2",
			"scale":[
				0.550000011920929,
				0.6000000238418579,
				0.5
			],
			"translation":[
				0,
				4.300000190734863,
				6
			]
		},
		{
			"mesh":1,
			"name":"cup1",
			"scale":[
				0.550000011920929,
				0.6000000238418579,
				0.5
			],
			"translation":[
				0,
				4.300000190734863,
				-6
			]
		},
		{
			"mesh":2,
			"name":"Floor",
			"scale":[
				25,
				0.3199999928474426,
				25
			]
		},
		{
			"mesh":3,
			"name":"Table",
			"scale":[
				0.30000001192092896,
				1.5,
				0.30000001192092896
			],
			"translation":[
				-2.5,
				1.7999999523162842,
				7
			]
		},
		{
			"mesh":4,
			"name":"Sphere",
			"scale":[
				0.18000000715255737,
				0.18000000715255737,
				0.18000000715255737
			],
			"translation":[
				0,
				3.880000114440918,
				0
			]
		},
		{
			"mesh":5,
			"name":"armL",
			"rotation":[
				0,
				-0.707122802734375,
				0,
				0.7070907354354858
			],
			"scale":[
				0.4999999701976776,
				1.7000000476837158,
				0.3999999761581421
			],
			"translation":[
				1.737701177597046,
				5.599999904632568,
				-9.737667083740234
			]
		},
		{
			"mesh":6,
			"name":"armR",
			"rotation":[
				0,
				-0.707122802734375,
				0,
				0.7070907354354858
			],
			"scale":[
				0.4999999701976776,
				1.7000000476837158,
				0.3999999761581421
			],
			"translation":[
				-1.9922986030578613,
				5.605993747711182,
				-9.737836837768555
			]
		},
		{
			"mesh":7,
			"name":"Head",
			"rotation":[
				0,
				-0.7071228623390198,
				0,
				0.7070907354354858
			],
			"scale":[
				0.8999999165534973,
				0.8999999761581421,
				0.8999999165534973
			],
			"translation":[
				-0.14229917526245117,
				8.205994606018066,
				-9.737752914428711
			]
		},
		{
			"mesh":8,
			"name":"legL",
			"rotation":[
				0,
				-0.707122802734375,
				0,
				0.7070907354354858
			],
			"scale":[
				0.4999999701976776,
				2,
				0.5999999642372131
			],
			"translation":[
				0.5077013969421387,
				2.3059942722320557,
				-9.737722396850586
			]
		},
		{
			"mesh":9,
			"name":"legR",
			"rotation":[
				0,
				-0.707122802734375,
				0,
				0.7070907354354858
			],
			"scale":[
				0.4999999701976776,
				2,
				0.5999999642372131
			],
			"translation":[
				-0.7922987937927246,
				2.3059942722320557,
				-9.737781524658203
			]
		},
		{
			"mesh":10,
			"name":"Torso",
			"rotation":[
				0,
				-0.707122802734375,
				0,
				0.7070907354354858
			],
			"scale":[
				0.631746232509613,
				1.5,
				1.455671787261963
			],
			"translation":[
				-0.13229894638061523,
				5.805993556976318,
				-9.737751007080078
			]
		},
		{
      "camera":0,
      "name":"Camera",
      "translation":[
      	0,
      	1,
        15
      ]
    }
  ],
    "cameras":[
    {
          "name":"Camera.001",
          "perspective":{
          "aspectRatio":1.7777777777777777,
          "yfov":1,
          "zfar":100,
          "znear":0.1
       },
          "type":"perspective"
    }
	],
	"materials":[
		{
			"doubleSided":true,
			"name":"Material.003",
			"pbrMetallicRoughness":{
				"baseColorTexture":{
					"index":0
				},
				"metallicFactor":0,
				"roughnessFactor":0.5
			}
		},
		{
			"doubleSided":true,
			"name":"Material.004",
			"pbrMetallicRoughness":{
				"baseColorTexture":{
					"index":1
				},
				"metallicFactor":0,
				"roughnessFactor":0.5
			}
		},
		{
			"doubleSided":true,
			"name":"Material.005",
			"pbrMetallicRoughness":{
				"baseColorTexture":{
					"index":2
				},
				"metallicFactor":0,
				"roughnessFactor":0.8937007784843445
			}
		},
		{
			"doubleSided":true,
			"name":"Material.006",
			"pbrMetallicRoughness":{
				"baseColorTexture":{
					"index":3
				},
				"metallicFactor":0,
				"roughnessFactor":0.5
			}
		},
		{
			"doubleSided":true,
			"name":"Material.007",
			"pbrMetallicRoughness":{
				"baseColorTexture":{
					"index":4
				},
				"metallicFactor":0,
				"roughnessFactor":0.5
			}
		},
		{
			"doubleSided":true,
			"name":"Material.009",
			"pbrMetallicRoughness":{
				"baseColorTexture":{
					"index":5
				},
				"metallicFactor":0,
				"roughnessFactor":0.5
			}
		},
		{
			"doubleSided":true,
			"name":"Material.002",
			"pbrMetallicRoughness":{
				"baseColorTexture":{
					"index":6
				},
				"metallicFactor":0,
				"roughnessFactor":0.5
			}
		},
		{
			"doubleSided":true,
			"name":"Material.008",
			"pbrMetallicRoughness":{
				"baseColorTexture":{
					"index":7
				},
				"metallicFactor":0,
				"roughnessFactor":0.5
			}
		},
		{
			"doubleSided":true,
			"name":"Material.010",
			"pbrMetallicRoughness":{
				"baseColorTexture":{
					"index":8
				},
				"metallicFactor":0,
				"roughnessFactor":0.5
			}
		},
		{
			"doubleSided":true,
			"name":"Material",
			"pbrMetallicRoughness":{
				"baseColorTexture":{
					"index":9
				},
				"metallicFactor":0,
				"roughnessFactor":0.5
			}
		},
		{
			"doubleSided":true,
			"name":"Material.001",
			"pbrMetallicRoughness":{
				"baseColorTexture":{
					"index":10
				},
				"metallicFactor":0,
				"roughnessFactor":0.5
			}
		}
	],
	"meshes":[
		{
			"name":"Cylinder.003",
			"primitives":[
				{
					"attributes":{
						"POSITION":0,
						"NORMAL":1,
						"TEXCOORD_0":2
					},
					"indices":3,
					"material":0
				}
			]
		},
		{
			"name":"Cylinder.004",
			"primitives":[
				{
					"attributes":{
						"POSITION":4,
						"NORMAL":5,
						"TEXCOORD_0":6
					},
					"indices":3,
					"material":1
				}
			]
		},
		{
			"name":"Cube",
			"primitives":[
				{
					"attributes":{
						"POSITION":7,
						"NORMAL":8,
						"TEXCOORD_0":9
					},
					"indices":10,
					"material":2
				}
			]
		},
		{
			"name":"Cube.001",
			"primitives":[
				{
					"attributes":{
						"POSITION":11,
						"NORMAL":12,
						"TEXCOORD_0":13
					},
					"indices":14,
					"material":3
				}
			]
		},
		{
			"name":"Sphere",
			"primitives":[
				{
					"attributes":{
						"POSITION":15,
						"NORMAL":16,
						"TEXCOORD_0":17
					},
					"indices":18,
					"material":4
				}
			]
		},
		{
			"name":"Cube.008",
			"primitives":[
				{
					"attributes":{
						"POSITION":19,
						"NORMAL":20,
						"TEXCOORD_0":21
					},
					"indices":10,
					"material":5
				}
			]
		},
		{
			"name":"Cube.007",
			"primitives":[
				{
					"attributes":{
						"POSITION":22,
						"NORMAL":23,
						"TEXCOORD_0":24
					},
					"indices":10,
					"material":6
				}
			]
		},
		{
			"name":"Cube.005",
			"primitives":[
				{
					"attributes":{
						"POSITION":25,
						"NORMAL":26,
						"TEXCOORD_0":27
					},
					"indices":10,
					"material":7
				}
			]
		},
		{
			"name":"Cube.009",
			"primitives":[
				{
					"attributes":{
						"POSITION":28,
						"NORMAL":29,
						"TEXCOORD_0":30
					},
					"indices":31,
					"material":8
				}
			]
		},
		{
			"name":"Cube.002",
			"primitives":[
				{
					"attributes":{
						"POSITION":32,
						"NORMAL":33,
						"TEXCOORD_0":34
					},
					"indices":31,
					"material":9
				}
			]
		},
		{
			"name":"Cube.003",
			"primitives":[
				{
					"attributes":{
						"POSITION":35,
						"NORMAL":36,
						"TEXCOORD_0":37
					},
					"indices":10,
					"material":10
				}
			]
		}
	],
	"textures":[
		{
			"sampler":0,
			"source":0
		},
		{
			"sampler":0,
			"source":1
		},
		{
			"sampler":0,
			"source":2
		},
		{
			"sampler":0,
			"source":3
		},
		{
			"sampler":0,
			"source":4
		},
		{
			"sampler":1,
			"source":5
		},
		{
			"sampler":1,
			"source":5
		},
		{
			"sampler":1,
			"source":6
		},
		{
			"sampler":1,
			"source":7
		},
		{
			"sampler":1,
			"source":8
		},
		{
			"sampler":0,
			"source":9
		}
	],
	"images":[
		{
			"mimeType":"image/jpeg",
			"name":"redTexture2.jpg",
			"uri":"redTexture2.jpg"
		},
		{
			"mimeType":"image/jpeg",
			"name":"blueTexture3.jpg",
			"uri":"blueTexture3.jpg"
		},
		{
			"mimeType":"image/jpeg",
			"name":"floorTexture3.jpg",
			"uri":"floorTexture3.jpg"
		},
		{
			"mimeType":"image/jpeg",
			"name":"woodTexture.jpg",
			"uri":"woodTexture.jpg"
		},
		{
			"mimeType":"image/jpeg",
			"name":"ballTexture.jpg",
			"uri":"ballTexture.jpg"
		},
		{
			"mimeType":"image/png",
			"name":"handTexture1",
			"uri":"handTexture1.png"
		},
		{
			"mimeType":"image/png",
			"name":"headTexture1",
			"uri":"headTexture1.png"
		},
		{
			"mimeType":"image/png",
			"name":"legsTexture1",
			"uri":"legsTexture1.png"
		},
		{
			"mimeType":"image/png",
			"name":"legsTexture1",
			"uri":"legsTexture1.png"
		},
		{
			"mimeType":"image/png",
			"name":"torsoTexture1",
			"uri":"torsoTexture1.png"
		}
	],
	"accessors":[
		{
			"bufferView":0,
			"componentType":5126,
			"count":511,
			"max":[
				0.9794462323188782,
				1.0044610500335693,
				0.9794462323188782
			],
			"min":[
				-0.9794462323188782,
				-0.9601964950561523,
				-0.9794462323188782
			],
			"type":"VEC3"
		},
		{
			"bufferView":1,
			"componentType":5126,
			"count":511,
			"type":"VEC3"
		},
		{
			"bufferView":2,
			"componentType":5126,
			"count":511,
			"type":"VEC2"
		},
		{
			"bufferView":3,
			"componentType":5123,
			"count":846,
			"type":"SCALAR"
		},
		{
			"bufferView":4,
			"componentType":5126,
			"count":511,
			"max":[
				0.9794462323188782,
				1.0044610500335693,
				0.9794462323188782
			],
			"min":[
				-0.9794462323188782,
				-0.9601964950561523,
				-0.9794462323188782
			],
			"type":"VEC3"
		},
		{
			"bufferView":5,
			"componentType":5126,
			"count":511,
			"type":"VEC3"
		},
		{
			"bufferView":6,
			"componentType":5126,
			"count":511,
			"type":"VEC2"
		},
		{
			"bufferView":7,
			"componentType":5126,
			"count":24,
			"max":[
				1,
				1,
				1
			],
			"min":[
				-1,
				-1,
				-1
			],
			"type":"VEC3"
		},
		{
			"bufferView":8,
			"componentType":5126,
			"count":24,
			"type":"VEC3"
		},
		{
			"bufferView":9,
			"componentType":5126,
			"count":24,
			"type":"VEC2"
		},
		{
			"bufferView":10,
			"componentType":5123,
			"count":36,
			"type":"SCALAR"
		},
		{
			"bufferView":11,
			"componentType":5126,
			"count":120,
			"max":[
				19.000001907348633,
				1.2666667699813843,
				3.333333969116211
			],
			"min":[
				-1.0000001192092896,
				-1,
				-50
			],
			"type":"VEC3"
		},
		{
			"bufferView":12,
			"componentType":5126,
			"count":120,
			"type":"VEC3"
		},
		{
			"bufferView":13,
			"componentType":5126,
			"count":120,
			"type":"VEC2"
		},
		{
			"bufferView":14,
			"componentType":5123,
			"count":180,
			"type":"SCALAR"
		},
		{
			"bufferView":15,
			"componentType":5126,
			"count":1984,
			"max":[
				0.9999997019767761,
				1,
				0.9999993443489075
			],
			"min":[
				-0.9999990463256836,
				-1,
				-1
			],
			"type":"VEC3"
		},
		{
			"bufferView":16,
			"componentType":5126,
			"count":1984,
			"type":"VEC3"
		},
		{
			"bufferView":17,
			"componentType":5126,
			"count":1984,
			"type":"VEC2"
		},
		{
			"bufferView":18,
			"componentType":5123,
			"count":2880,
			"type":"SCALAR"
		},
		{
			"bufferView":19,
			"componentType":5126,
			"count":24,
			"max":[
				1,
				1,
				1
			],
			"min":[
				-1,
				-1,
				-1
			],
			"type":"VEC3"
		},
		{
			"bufferView":20,
			"componentType":5126,
			"count":24,
			"type":"VEC3"
		},
		{
			"bufferView":21,
			"componentType":5126,
			"count":24,
			"type":"VEC2"
		},
		{
			"bufferView":22,
			"componentType":5126,
			"count":24,
			"max":[
				1,
				1,
				1
			],
			"min":[
				-1,
				-1,
				-1
			],
			"type":"VEC3"
		},
		{
			"bufferView":23,
			"componentType":5126,
			"count":24,
			"type":"VEC3"
		},
		{
			"bufferView":24,
			"componentType":5126,
			"count":24,
			"type":"VEC2"
		},
		{
			"bufferView":25,
			"componentType":5126,
			"count":24,
			"max":[
				1,
				1,
				1
			],
			"min":[
				-1,
				-1,
				-1
			],
			"type":"VEC3"
		},
		{
			"bufferView":26,
			"componentType":5126,
			"count":24,
			"type":"VEC3"
		},
		{
			"bufferView":27,
			"componentType":5126,
			"count":24,
			"type":"VEC2"
		},
		{
			"bufferView":28,
			"componentType":5126,
			"count":24,
			"max":[
				1,
				1,
				1
			],
			"min":[
				-1,
				-1,
				-1
			],
			"type":"VEC3"
		},
		{
			"bufferView":29,
			"componentType":5126,
			"count":24,
			"type":"VEC3"
		},
		{
			"bufferView":30,
			"componentType":5126,
			"count":24,
			"type":"VEC2"
		},
		{
			"bufferView":31,
			"componentType":5123,
			"count":36,
			"type":"SCALAR"
		},
		{
			"bufferView":32,
			"componentType":5126,
			"count":24,
			"max":[
				1,
				1,
				1
			],
			"min":[
				-1,
				-1,
				-1
			],
			"type":"VEC3"
		},
		{
			"bufferView":33,
			"componentType":5126,
			"count":24,
			"type":"VEC3"
		},
		{
			"bufferView":34,
			"componentType":5126,
			"count":24,
			"type":"VEC2"
		},
		{
			"bufferView":35,
			"componentType":5126,
			"count":24,
			"max":[
				1,
				1,
				1
			],
			"min":[
				-1,
				-1,
				-1
			],
			"type":"VEC3"
		},
		{
			"bufferView":36,
			"componentType":5126,
			"count":24,
			"type":"VEC3"
		},
		{
			"bufferView":37,
			"componentType":5126,
			"count":24,
			"type":"VEC2"
		}
	],
	"bufferViews":[
		{
			"buffer":0,
			"byteLength":6132,
			"byteOffset":0,
			"target":34962
		},
		{
			"buffer":0,
			"byteLength":6132,
			"byteOffset":6132,
			"target":34962
		},
		{
			"buffer":0,
			"byteLength":4088,
			"byteOffset":12264,
			"target":34962
		},
		{
			"buffer":0,
			"byteLength":1692,
			"byteOffset":16352,
			"target":34963
		},
		{
			"buffer":0,
			"byteLength":6132,
			"byteOffset":18044,
			"target":34962
		},
		{
			"buffer":0,
			"byteLength":6132,
			"byteOffset":24176,
			"target":34962
		},
		{
			"buffer":0,
			"byteLength":4088,
			"byteOffset":30308,
			"target":34962
		},
		{
			"buffer":0,
			"byteLength":288,
			"byteOffset":34396,
			"target":34962
		},
		{
			"buffer":0,
			"byteLength":288,
			"byteOffset":34684,
			"target":34962
		},
		{
			"buffer":0,
			"byteLength":192,
			"byteOffset":34972,
			"target":34962
		},
		{
			"buffer":0,
			"byteLength":72,
			"byteOffset":35164,
			"target":34963
		},
		{
			"buffer":0,
			"byteLength":1440,
			"byteOffset":35236,
			"target":34962
		},
		{
			"buffer":0,
			"byteLength":1440,
			"byteOffset":36676,
			"target":34962
		},
		{
			"buffer":0,
			"byteLength":960,
			"byteOffset":38116,
			"target":34962
		},
		{
			"buffer":0,
			"byteLength":360,
			"byteOffset":39076,
			"target":34963
		},
		{
			"buffer":0,
			"byteLength":23808,
			"byteOffset":39436,
			"target":34962
		},
		{
			"buffer":0,
			"byteLength":23808,
			"byteOffset":63244,
			"target":34962
		},
		{
			"buffer":0,
			"byteLength":15872,
			"byteOffset":87052,
			"target":34962
		},
		{
			"buffer":0,
			"byteLength":5760,
			"byteOffset":102924,
			"target":34963
		},
		{
			"buffer":0,
			"byteLength":288,
			"byteOffset":108684,
			"target":34962
		},
		{
			"buffer":0,
			"byteLength":288,
			"byteOffset":108972,
			"target":34962
		},
		{
			"buffer":0,
			"byteLength":192,
			"byteOffset":109260,
			"target":34962
		},
		{
			"buffer":0,
			"byteLength":288,
			"byteOffset":109452,
			"target":34962
		},
		{
			"buffer":0,
			"byteLength":288,
			"byteOffset":109740,
			"target":34962
		},
		{
			"buffer":0,
			"byteLength":192,
			"byteOffset":110028,
			"target":34962
		},
		{
			"buffer":0,
			"byteLength":288,
			"byteOffset":110220,
			"target":34962
		},
		{
			"buffer":0,
			"byteLength":288,
			"byteOffset":110508,
			"target":34962
		},
		{
			"buffer":0,
			"byteLength":192,
			"byteOffset":110796,
			"target":34962
		},
		{
			"buffer":0,
			"byteLength":288,
			"byteOffset":110988,
			"target":34962
		},
		{
			"buffer":0,
			"byteLength":288,
			"byteOffset":111276,
			"target":34962
		},
		{
			"buffer":0,
			"byteLength":192,
			"byteOffset":111564,
			"target":34962
		},
		{
			"buffer":0,
			"byteLength":72,
			"byteOffset":111756,
			"target":34963
		},
		{
			"buffer":0,
			"byteLength":288,
			"byteOffset":111828,
			"target":34962
		},
		{
			"buffer":0,
			"byteLength":288,
			"byteOffset":112116,
			"target":34962
		},
		{
			"buffer":0,
			"byteLength":192,
			"byteOffset":112404,
			"target":34962
		},
		{
			"buffer":0,
			"byteLength":288,
			"byteOffset":112596,
			"target":34962
		},
		{
			"buffer":0,
			"byteLength":288,
			"byteOffset":112884,
			"target":34962
		},
		{
			"buffer":0,
			"byteLength":192,
			"byteOffset":113172,
			"target":34962
		}
	],
	"samplers":[
		{
			"magFilter":9729,
			"minFilter":9987
		},
		{
			"magFilter":9728,
			"minFilter":9984
		}
	],
	"buffers":[
		{
			"byteLength":113364,
			"uri":"test3.bin"
		}
	]
}
