{
	"asset":{
		"generator":"Khronos glTF Blender I/O v4.2.69",
		"version":"2.0"
	},
	"scene":0,
	"scenes":[
		{
			"name":"Scene",
			"nodes":[
				0,
				1,
				2,
				3
			]
		}
	],
	"nodes":[
		{
			"mesh":0,
			"name":"cup2",
			"scale":[
				0.550000011920929,
				0.6000000238418579,
				0.5
			],
			"translation":[
				0,
				4.300000190734863,
				6
			]
		},
		{
			"mesh":1,
			"name":"cup1",
			"scale":[
				0.550000011920929,
				0.6000000238418579,
				0.5
			],
			"translation":[
				0,
				4.300000190734863,
				-6
			]
		},
		{
			"mesh":2,
			"name":"Floor",
			"scale":[
				35,
				0.3199999928474426,
				45
			]
		},
		{
			"mesh":3,
			"name":"Table",
			"scale":[
				0.30000001192092896,
				1.5,
				0.30000001192092896
			],
			"translation":[
				-2.5,
				1.7999999523162842,
				7
			]
		},
		{
      	"camera":0,
        "name":"Camera",
      	"translation":[
      		0,
      		1,
      	  15
      	]
    }
	],
	"cameras":[
      	{
      			"name":"Camera.001",
      			"perspective":{
      				"aspectRatio":1.7777777777777777,
      				"yfov":1,
      				"zfar":100,
      				"znear":0.1
      			},
      			"type":"perspective"
      	}
  ],
	"materials":[
		{
			"doubleSided":true,
			"name":"Material.003",
			"pbrMetallicRoughness":{
				"baseColorTexture":{
					"index":0
				},
				"metallicFactor":0,
				"roughnessFactor":0.5
			}
		},
		{
			"doubleSided":true,
			"name":"Material.004",
			"pbrMetallicRoughness":{
				"baseColorTexture":{
					"index":1
				},
				"metallicFactor":0,
				"roughnessFactor":0.5
			}
		},
		{
			"doubleSided":true,
			"name":"Material.005",
			"pbrMetallicRoughness":{
				"baseColorTexture":{
					"index":2
				},
				"metallicFactor":0,
				"roughnessFactor":0.5
			}
		},
		{
			"doubleSided":true,
			"name":"Material.006",
			"pbrMetallicRoughness":{
				"baseColorTexture":{
					"index":3
				},
				"metallicFactor":0,
				"roughnessFactor":0.5
			}
		}
	],
	"meshes":[
		{
			"name":"Cylinder.003",
			"primitives":[
				{
					"attributes":{
						"POSITION":0,
						"NORMAL":1,
						"TEXCOORD_0":2
					},
					"indices":3,
					"material":0
				}
			]
		},
		{
			"name":"Cylinder.004",
			"primitives":[
				{
					"attributes":{
						"POSITION":4,
						"NORMAL":5,
						"TEXCOORD_0":6
					},
					"indices":3,
					"material":1
				}
			]
		},
		{
			"name":"Cube",
			"primitives":[
				{
					"attributes":{
						"POSITION":7,
						"NORMAL":8,
						"TEXCOORD_0":9
					},
					"indices":10,
					"material":2
				}
			]
		},
		{
			"name":"Cube.001",
			"primitives":[
				{
					"attributes":{
						"POSITION":11,
						"NORMAL":12,
						"TEXCOORD_0":13
					},
					"indices":14,
					"material":3
				}
			]
		}
	],
	"textures":[
		{
			"sampler":0,
			"source":0
		},
		{
			"sampler":0,
			"source":1
		},
		{
			"sampler":0,
			"source":2
		},
		{
			"sampler":0,
			"source":3
		}
	],
	"images":[
		{
			"mimeType":"image/jpeg",
			"name":"redTexture.jpg",
			"uri":"redTexture.jpg"
		},
		{
			"mimeType":"image/jpeg",
			"name":"blueTexture.jpg",
			"uri":"blueTexture.jpg"
		},
		{
			"mimeType":"image/jpeg",
			"name":"floorTexture.jpg",
			"uri":"floorTexture.jpg"
		},
		{
			"mimeType":"image/jpeg",
			"name":"woodTexture.jpg",
			"uri":"woodTexture.jpg"
		}
	],
	"accessors":[
		{
			"bufferView":0,
			"componentType":5126,
			"count":511,
			"max":[
				0.9794462323188782,
				1.0044610500335693,
				0.9794462323188782
			],
			"min":[
				-0.9794462323188782,
				-0.9601964950561523,
				-0.9794462323188782
			],
			"type":"VEC3"
		},
		{
			"bufferView":1,
			"componentType":5126,
			"count":511,
			"type":"VEC3"
		},
		{
			"bufferView":2,
			"componentType":5126,
			"count":511,
			"type":"VEC2"
		},
		{
			"bufferView":3,
			"componentType":5123,
			"count":846,
			"type":"SCALAR"
		},
		{
			"bufferView":4,
			"componentType":5126,
			"count":511,
			"max":[
				0.9794462323188782,
				1.0044610500335693,
				0.9794462323188782
			],
			"min":[
				-0.9794462323188782,
				-0.9601964950561523,
				-0.9794462323188782
			],
			"type":"VEC3"
		},
		{
			"bufferView":5,
			"componentType":5126,
			"count":511,
			"type":"VEC3"
		},
		{
			"bufferView":6,
			"componentType":5126,
			"count":511,
			"type":"VEC2"
		},
		{
			"bufferView":7,
			"componentType":5126,
			"count":24,
			"max":[
				1,
				1,
				1
			],
			"min":[
				-1,
				-1,
				-1
			],
			"type":"VEC3"
		},
		{
			"bufferView":8,
			"componentType":5126,
			"count":24,
			"type":"VEC3"
		},
		{
			"bufferView":9,
			"componentType":5126,
			"count":24,
			"type":"VEC2"
		},
		{
			"bufferView":10,
			"componentType":5123,
			"count":36,
			"type":"SCALAR"
		},
		{
			"bufferView":11,
			"componentType":5126,
			"count":120,
			"max":[
				19.000001907348633,
				1.2666667699813843,
				3.333333969116211
			],
			"min":[
				-1.0000001192092896,
				-1,
				-50
			],
			"type":"VEC3"
		},
		{
			"bufferView":12,
			"componentType":5126,
			"count":120,
			"type":"VEC3"
		},
		{
			"bufferView":13,
			"componentType":5126,
			"count":120,
			"type":"VEC2"
		},
		{
			"bufferView":14,
			"componentType":5123,
			"count":180,
			"type":"SCALAR"
		}
	],
	"bufferViews":[
		{
			"buffer":0,
			"byteLength":6132,
			"byteOffset":0,
			"target":34962
		},
		{
			"buffer":0,
			"byteLength":6132,
			"byteOffset":6132,
			"target":34962
		},
		{
			"buffer":0,
			"byteLength":4088,
			"byteOffset":12264,
			"target":34962
		},
		{
			"buffer":0,
			"byteLength":1692,
			"byteOffset":16352,
			"target":34963
		},
		{
			"buffer":0,
			"byteLength":6132,
			"byteOffset":18044,
			"target":34962
		},
		{
			"buffer":0,
			"byteLength":6132,
			"byteOffset":24176,
			"target":34962
		},
		{
			"buffer":0,
			"byteLength":4088,
			"byteOffset":30308,
			"target":34962
		},
		{
			"buffer":0,
			"byteLength":288,
			"byteOffset":34396,
			"target":34962
		},
		{
			"buffer":0,
			"byteLength":288,
			"byteOffset":34684,
			"target":34962
		},
		{
			"buffer":0,
			"byteLength":192,
			"byteOffset":34972,
			"target":34962
		},
		{
			"buffer":0,
			"byteLength":72,
			"byteOffset":35164,
			"target":34963
		},
		{
			"buffer":0,
			"byteLength":1440,
			"byteOffset":35236,
			"target":34962
		},
		{
			"buffer":0,
			"byteLength":1440,
			"byteOffset":36676,
			"target":34962
		},
		{
			"buffer":0,
			"byteLength":960,
			"byteOffset":38116,
			"target":34962
		},
		{
			"buffer":0,
			"byteLength":360,
			"byteOffset":39076,
			"target":34963
		}
	],
	"samplers":[
		{
			"magFilter":9729,
			"minFilter":9987
		}
	],
	"buffers":[
		{
			"byteLength":39436,
			"uri":"test.bin"
		}
	]
}
